<svg xmlns="http://www.w3.org/2000/svg" width="16" height="16" viewBox="0 0 16 16">
  <g id="t4" fill="none" fill-rule="evenodd" stroke="none" stroke-width="1">
    <polygon id="Fill-2" fill="#9AA7B0"
             points="9.976 4.834 7.06 4.834 5.454 13 3.35 13 4.949 4.834 2 4.834 2.37 3 10.345 3"/>
    <path id="Fill-3" fill="#40B6E0"
          d="M9.1191,9.8428 L11.0081,9.8428 L11.5741,7.2478 C11.0071,7.9768 9.9861,9.0318 9.1191,9.8428 L9.1191,9.8428 Z M13.9471,4.9998 L12.9321,9.8428 L14.0001,9.8428 L13.7351,11.3598 L12.6671,11.3598 L12.3391,12.9998 L10.4151,12.9998 L10.7441,11.3598 L7.2781,11.3598 L7.5531,9.7818 C8.8851,8.5278 11.2711,6.0718 11.9971,4.9998 L13.9471,4.9998 Z"
          opacity=".7"/>
  </g>
</svg>
