<svg xmlns="http://www.w3.org/2000/svg" width="16" height="16" viewBox="0 0 16 16">
  <g id="t4entity" fill="none" fill-rule="evenodd" stroke="none" stroke-width="1">
    <path id="Fill-2" fill="#9AA7B0" d="M8.6562,9.25 L7.0562,9.25 L7.3442,6.75 L8.9442,6.75 L8.6562,9.25 Z M12.4442,6.75 L12.6452,5 L10.9452,5 L11.2902,2 L9.4902,2 L9.1452,5 L7.5452,5 L7.8902,2 L6.0912,2 L5.7452,5 L4.0452,5 L3.8442,6.75 L5.5442,6.75 L5.2562,9.25 L3.5562,9.25 L3.3542,11 L5.0542,11 L4.7092,14 L6.5092,14 L6.8542,11 L8.4542,11 L8.1092,14 L9.9092,14 L10.2552,11 L11.9542,11 L12.1562,9.25 L10.4562,9.25 L10.7442,6.75 L12.4442,6.75 Z"/>
  </g>
</svg>
